<?xml version="1.0" encoding="utf-8"?>
<!-- Generator: Adobe Illustrator 28.0.0, SVG Export Plug-In . SVG Version: 6.00 Build 0)  -->
<svg version="1.1" id="Слой_1" xmlns="http://www.w3.org/2000/svg" xmlns:xlink="http://www.w3.org/1999/xlink" x="0px" y="0px"
	 viewBox="0 0 1000 589.9301758" enable-background="new 0 0 1000 589.9301758" xml:space="preserve">
<g>
	<path fill-rule="evenodd" clip-rule="evenodd" fill="#000001" d="M186.8955688,325.7615356
		c1.2522583-5.8684692,2.7102661-11.6820068,4.1956177-17.4956055c4.0219727-15.7039795,8.2587891-31.3485107,12.4955444-46.993103
		c2.7514038-10.1554565,5.49823-20.3063965,8.4644165-30.3978882c1.9424438-6.6088257,3.7020264-13.2130737,6.7504883-19.4745483
		c2.0841064-4.2779541,4.428772-7.2578735,9.1728516-8.9031982c3.6060791-1.2614746,7.2487183-1.5036621,10.9781494-1.7459106
		c10.5028687-0.6855469,21.0010986-0.6078491,31.5130615-0.671875c36.0149536-0.2102051,72.020752-0.1096802,108.0357056-0.1096802
		l21.581543-79.9869385h-60.5930176l-60.5963745,0.0822754c-24.2918091,0.0731201-48.5835571,0.1645508-72.8753662,0.5895996
		c-17.0933838,0.3016357-34.168457,0.6992798-51.2298584,1.965271c-10.1875,0.758667-20.2835693,1.828186-30.3293533,3.8483276
		c-13.5512695,2.7285156-25.8411865,6.8510132-37.5368652,14.6070557
		c-20.9188232,13.8757935-31.9290123,35.6904297-40.2654381,57.6101685
		c-10.6399536,27.9710083-24.2918091,81.1067505-31.7507324,109.9049683
		c-3.9077148,15.0732422-7.8519897,30.1282349-11.0192871,45.3934326
		c-2.2303467,10.7770996-4.1682129,21.3895874-3.8528442,32.5322876
		c0.5438843,19.4700317,9.8720703,35.4573364,28.1766357,43.4555664c5.5576172,2.4269409,11.2615356,3.8894653,17.1848145,4.9772339
		c8.7294922,1.6087646,17.4955444,2.3491821,26.3301964,2.9067383c13.2313843,0.8273315,26.4672852,1.1563721,39.71698,1.3939819
		c18.2771072,0.3336792,36.5542068,0.4433594,54.8313675,0.5256348
		c50.8642578,0.2193604,143.2324829,0.3336182,194.0967407-0.4844971
		c22.116272-0.3565063,44.2005615-0.8180542,66.2802734-2.6279907c15.3520508-1.2568359,30.3704834-2.9707642,45.2288818-7.6463013
		c11.5494995-3.6334839,21.4673462-8.7295532,30.562439-16.9243164
		c12.1755981-10.9735718,18.7615356-24.0404053,24.652832-38.7251587
		c7.3309937-18.2816772,12.9160156-37.0570068,18.5102539-55.887146
		c12.824646-43.1950684,24.5568848-86.6872559,36.37146-130.1610718C598.9283447,124.9142456,615.6652832,62.454834,632.4249878,0
		h-159.973938l-27.9606934,104.361084l-28.1047363,104.3198853c-9.4105225,34.7626343-18.619873,69.5664062-28.8439331,104.1051025
		c-2.6645508,9.0037231-5.2194214,18.0120239-8.8757935,26.7141113c-1.4716187,3.5101318-3.0804443,6.8145142-5.5438843,9.7944336
		c-3.6426392,4.4013062-7.8519897,6.4488525-13.2359619,7.7514648c-7.0841064,1.7138672-14.1865845,1.9606934-21.3804321,2.2486572
		c-10.4434204,0.4204712-20.8868408,0.4935913-31.3393555,0.5575562
		c-22.6830444,0.1416626-45.3660278,0.137146-68.0490723,0.0274658c-8.2907715-0.0411987-16.5814819-0.0776978-24.8722534-0.3291016
		c-5.0640259-0.1508179-10.1097412-0.310791-15.1463623-1.0466309c-4.4561768-0.6444092-9.2322388-1.6499023-12.0567627-5.9735107
		c-2.7788086-4.2596436-2.6463013-9.7716064-2.2166748-14.3602905
		C185.2182007,333.9746094,186.0134277,329.874939,186.8955688,325.7615356z"/>
	<polygon fill-rule="evenodd" clip-rule="evenodd" fill="#000001" points="753.7044678,439.9338989 913.6738892,439.9338989 
		1000,119.9813843 840.026062,119.9813843 	"/>
	<path fill-rule="evenodd" clip-rule="evenodd" fill="#000001" d="M536.0292969,438.5362549
		c-15.4480591,19.0175171-33.0853271,28.5057373-56.4584961,34.0359497
		c-21.343811,5.0457764-45.1923218,6.206665-66.8652344,6.8099365c-22.4590454,0.621582-44.9180908,0.5438843-67.3817749,0.5438843
		l-29.6757202,109.982666c48.4053345,0,151.1210327,0.4067383,199.5401001-2.3217773
		c19.5522461-1.1060181,38.8805542-2.7833862,58.1220703-6.8602295
		c13.5604248-2.8748169,26.4855957-6.8921509,39.0999756-12.7468872
		c31.5496216-14.6573486,54.3469238-37.5505981,71.9521484-66.869873
		c16.8786011-28.0944214,28.460083-61.111145,37.888855-92.0437622
		c9.7075806-31.8375854,17.9846191-64.0361938,26.4170532-96.2119751
		c16.8602905-64.3607178,34.0725098-128.6254272,51.3624268-192.8718872l-159.9740601,0.000061
		c-11.1975098,43.4829712-22.3082275,86.9842529-33.8668213,130.3758545
		c-10.2194824,38.3321533-24.7167969,91.6324463-38.8759766,128.8585205
		C559.5623779,399.6008301,550.1015625,421.2143555,536.0292969,438.5362549z"/>
</g>
</svg>
